# xmcd
#
# Track frame offsets:
#	150
#	13127
#	25622
#	74757
#	102792
#	129967
#	173525
#	214390
#	235407
#	247005
#
# Disc length: 3694 seconds
#
# Revision: 0
# Processed by: cddbd v1.5.1PL0 Copyright (c) Steve Scherf et al.
# Submitted via: dBpowerAMP V4.0
#
DISCID=870e6c0a
DTITLE=Oficina Blues - Live
DYEAR=1993
DGENRE=Blues
TTITLE0=Fannie Mae
TTITLE1=Don't You Know?
TTITLE2=I'll Play The Blues For You
TTITLE3=Blue Mood
TTITLE4=Crossroads
TTITLE5=Stormy Monday
TTITLE6=Tribute to john lee Hooker
TTITLE7=Kansas City
TTITLE8=Chameleon Blues
TTITLE9=Talk To Me Baby
EXTD=
EXTT0=
EXTT1=
EXTT2=
EXTT3=
EXTT4=
EXTT5=
EXTT6=
EXTT7=
EXTT8=
EXTT9=
PLAYORDER=
